<?xml version="1.0" encoding="UTF-8" standalone="no"?>
<!DOCTYPE svg PUBLIC "-//W3C//DTD SVG 1.1//EN"
 "http://www.w3.org/Graphics/SVG/1.1/DTD/svg11.dtd">
<!-- Generated by graphviz version 2.43.0 (0)
 -->
<!-- Title: G Pages: 1 -->
<svg width="510pt" height="305pt"
 viewBox="0.00 0.00 510.00 305.00" xmlns="http://www.w3.org/2000/svg" xmlns:xlink="http://www.w3.org/1999/xlink">
<g id="graph0" class="graph" transform="scale(1 1) rotate(0) translate(4 301)">
<title>G</title>
<polygon fill="white" stroke="transparent" points="-4,4 -4,-301 506,-301 506,4 -4,4"/>
<g id="clust1" class="cluster">
<title>cluster_project</title>
<polygon fill="none" stroke="black" points="0,-8 0,-289 150,-289 150,-8 0,-8"/>
<text text-anchor="middle" x="75" y="-273.8" font-family="Times,serif" font-size="14.00">Database Project</text>
</g>
<g id="clust2" class="cluster">
<title>cluster_folder</title>
<polygon fill="none" stroke="black" points="8,-16 8,-258 142,-258 142,-16 8,-16"/>
<text text-anchor="middle" x="75" y="-242.8" font-family="Times,serif" font-size="14.00">Database Folder</text>
</g>
<g id="clust3" class="cluster">
<title>cluster_publish</title>
<polygon fill="none" stroke="black" points="162,-181 162,-258 342,-258 342,-181 162,-181"/>
<text text-anchor="middle" x="252" y="-242.8" font-family="Times,serif" font-size="14.00">Publish with audb</text>
</g>
<g id="clust4" class="cluster">
<title>cluster_backend</title>
<polygon fill="none" stroke="black" points="354,-8 354,-289 502,-289 502,-8 354,-8"/>
<text text-anchor="middle" x="428" y="-273.8" font-family="Times,serif" font-size="14.00">Backend</text>
</g>
<g id="clust5" class="cluster">
<title>cluster_database</title>
<polygon fill="none" stroke="black" points="362,-16 362,-258 494,-258 494,-16 362,-16"/>
<text text-anchor="middle" x="428" y="-242.8" font-family="Times,serif" font-size="14.00">Database vX.Y.Z</text>
</g>
<!-- header_in -->
<g id="node1" class="node">
<title>header_in</title>
<path fill="orange" stroke="orange" d="M52,-190C52,-190 97,-190 97,-190 103,-190 109,-196 109,-202 109,-202 109,-214 109,-214 109,-220 103,-226 97,-226 97,-226 52,-226 52,-226 46,-226 40,-220 40,-214 40,-214 40,-202 40,-202 40,-196 46,-190 52,-190"/>
<text text-anchor="middle" x="74.5" y="-204.3" font-family="Times,serif" font-size="14.00">Header</text>
</g>
<!-- pack -->
<g id="node5" class="node">
<title>pack</title>
<path fill="orange" stroke="orange" d="M182,-190C182,-190 218,-190 218,-190 224,-190 230,-196 230,-202 230,-202 230,-214 230,-214 230,-220 224,-226 218,-226 218,-226 182,-226 182,-226 176,-226 170,-220 170,-214 170,-214 170,-202 170,-202 170,-196 176,-190 182,-190"/>
<text text-anchor="middle" x="200" y="-204.3" font-family="Times,serif" font-size="14.00">(Pack)</text>
</g>
<!-- header_in&#45;&gt;pack -->
<g id="edge1" class="edge">
<title>header_in&#45;&gt;pack</title>
<path fill="none" stroke="black" d="M142,-208C148.02,-208 153.98,-208 159.65,-208"/>
<polygon fill="black" stroke="black" points="159.91,-211.5 169.91,-208 159.91,-204.5 159.91,-211.5"/>
</g>
<!-- tables_in -->
<g id="node2" class="node">
<title>tables_in</title>
<path fill="orange" stroke="orange" d="M55.5,-135C55.5,-135 93.5,-135 93.5,-135 99.5,-135 105.5,-141 105.5,-147 105.5,-147 105.5,-159 105.5,-159 105.5,-165 99.5,-171 93.5,-171 93.5,-171 55.5,-171 55.5,-171 49.5,-171 43.5,-165 43.5,-159 43.5,-159 43.5,-147 43.5,-147 43.5,-141 49.5,-135 55.5,-135"/>
<text text-anchor="middle" x="74.5" y="-149.3" font-family="Times,serif" font-size="14.00">Tables</text>
</g>
<!-- media_in -->
<g id="node3" class="node">
<title>media_in</title>
<path fill="orange" stroke="orange" d="M56,-80C56,-80 93,-80 93,-80 99,-80 105,-86 105,-92 105,-92 105,-104 105,-104 105,-110 99,-116 93,-116 93,-116 56,-116 56,-116 50,-116 44,-110 44,-104 44,-104 44,-92 44,-92 44,-86 50,-80 56,-80"/>
<text text-anchor="middle" x="74.5" y="-94.3" font-family="Times,serif" font-size="14.00">Media</text>
</g>
<!-- deps_in -->
<g id="node4" class="node">
<title>deps_in</title>
<path fill="orange" stroke="orange" d="M55,-25C55,-25 94,-25 94,-25 100,-25 106,-31 106,-37 106,-37 106,-49 106,-49 106,-55 100,-61 94,-61 94,-61 55,-61 55,-61 49,-61 43,-55 43,-49 43,-49 43,-37 43,-37 43,-31 49,-25 55,-25"/>
<text text-anchor="middle" x="74.5" y="-39.3" font-family="Times,serif" font-size="14.00">(Deps)</text>
</g>
<!-- upload -->
<g id="node6" class="node">
<title>upload</title>
<path fill="orange" stroke="orange" d="M278,-190C278,-190 322,-190 322,-190 328,-190 334,-196 334,-202 334,-202 334,-214 334,-214 334,-220 328,-226 322,-226 322,-226 278,-226 278,-226 272,-226 266,-220 266,-214 266,-214 266,-202 266,-202 266,-196 272,-190 278,-190"/>
<text text-anchor="middle" x="300" y="-204.3" font-family="Times,serif" font-size="14.00">Upload</text>
</g>
<!-- pack&#45;&gt;upload -->
<g id="edge2" class="edge">
<title>pack&#45;&gt;upload</title>
<path fill="none" stroke="black" d="M230.14,-208C238.08,-208 246.86,-208 255.42,-208"/>
<polygon fill="black" stroke="black" points="255.67,-211.5 265.67,-208 255.67,-204.5 255.67,-211.5"/>
</g>
<!-- header_out -->
<g id="node7" class="node">
<title>header_out</title>
<path fill="orange" stroke="orange" d="M405,-190C405,-190 450,-190 450,-190 456,-190 462,-196 462,-202 462,-202 462,-214 462,-214 462,-220 456,-226 450,-226 450,-226 405,-226 405,-226 399,-226 393,-220 393,-214 393,-214 393,-202 393,-202 393,-196 399,-190 405,-190"/>
<text text-anchor="middle" x="427.5" y="-204.3" font-family="Times,serif" font-size="14.00">Header</text>
</g>
<!-- upload&#45;&gt;header_out -->
<g id="edge3" class="edge">
<title>upload&#45;&gt;header_out</title>
<path fill="none" stroke="black" d="M334.3,-208C339.8,-208 345.69,-208 351.73,-208"/>
<polygon fill="black" stroke="black" points="352,-211.5 362,-208 352,-204.5 352,-211.5"/>
</g>
<!-- tables_out -->
<g id="node8" class="node">
<title>tables_out</title>
<path fill="orange" stroke="orange" d="M408.5,-135C408.5,-135 446.5,-135 446.5,-135 452.5,-135 458.5,-141 458.5,-147 458.5,-147 458.5,-159 458.5,-159 458.5,-165 452.5,-171 446.5,-171 446.5,-171 408.5,-171 408.5,-171 402.5,-171 396.5,-165 396.5,-159 396.5,-159 396.5,-147 396.5,-147 396.5,-141 402.5,-135 408.5,-135"/>
<text text-anchor="middle" x="427.5" y="-149.3" font-family="Times,serif" font-size="14.00">Tables</text>
</g>
<!-- media_out -->
<g id="node9" class="node">
<title>media_out</title>
<path fill="orange" stroke="orange" d="M409,-80C409,-80 446,-80 446,-80 452,-80 458,-86 458,-92 458,-92 458,-104 458,-104 458,-110 452,-116 446,-116 446,-116 409,-116 409,-116 403,-116 397,-110 397,-104 397,-104 397,-92 397,-92 397,-86 403,-80 409,-80"/>
<text text-anchor="middle" x="427.5" y="-94.3" font-family="Times,serif" font-size="14.00">Media</text>
</g>
<!-- deps_out -->
<g id="node10" class="node">
<title>deps_out</title>
<path fill="orange" stroke="orange" d="M412.5,-25C412.5,-25 442.5,-25 442.5,-25 448.5,-25 454.5,-31 454.5,-37 454.5,-37 454.5,-49 454.5,-49 454.5,-55 448.5,-61 442.5,-61 442.5,-61 412.5,-61 412.5,-61 406.5,-61 400.5,-55 400.5,-49 400.5,-49 400.5,-37 400.5,-37 400.5,-31 406.5,-25 412.5,-25"/>
<text text-anchor="middle" x="427.5" y="-39.3" font-family="Times,serif" font-size="14.00">Deps</text>
</g>
</g>
</svg>
