<?xml version="1.0" encoding="UTF-8" standalone="no"?>
<!DOCTYPE svg PUBLIC "-//W3C//DTD SVG 1.1//EN"
 "http://www.w3.org/Graphics/SVG/1.1/DTD/svg11.dtd">
<!-- Generated by graphviz version 2.43.0 (0)
 -->
<!-- Title: G Pages: 1 -->
<svg width="718pt" height="305pt"
 viewBox="0.00 0.00 718.00 305.00" xmlns="http://www.w3.org/2000/svg" xmlns:xlink="http://www.w3.org/1999/xlink">
<g id="graph0" class="graph" transform="scale(1 1) rotate(0) translate(4 301)">
<title>G</title>
<polygon fill="white" stroke="transparent" points="-4,4 -4,-301 714,-301 714,4 -4,4"/>
<g id="clust1" class="cluster">
<title>cluster_backend</title>
<polygon fill="none" stroke="black" points="0,-8 0,-289 148,-289 148,-8 0,-8"/>
<text text-anchor="middle" x="74" y="-273.8" font-family="Times,serif" font-size="14.00">Backend</text>
</g>
<g id="clust2" class="cluster">
<title>cluster_database</title>
<polygon fill="none" stroke="black" points="8,-16 8,-258 140,-258 140,-16 8,-16"/>
<text text-anchor="middle" x="74" y="-242.8" font-family="Times,serif" font-size="14.00">Database vX.Y.Z</text>
</g>
<g id="clust3" class="cluster">
<title>cluster_load</title>
<polygon fill="none" stroke="black" points="160,-181 160,-258 500,-258 500,-181 160,-181"/>
<text text-anchor="middle" x="330" y="-242.8" font-family="Times,serif" font-size="14.00">Load with audb</text>
</g>
<g id="clust4" class="cluster">
<title>cluster_cache</title>
<polygon fill="none" stroke="black" points="512,-8 512,-289 710,-289 710,-8 512,-8"/>
<text text-anchor="middle" x="611" y="-273.8" font-family="Times,serif" font-size="14.00">Cache</text>
</g>
<g id="clust5" class="cluster">
<title>cluster_flavor</title>
<polygon fill="none" stroke="black" points="520,-16 520,-258 702,-258 702,-16 520,-16"/>
<text text-anchor="middle" x="611" y="-242.8" font-family="Times,serif" font-size="14.00">Database vX.Y.Z Flavor</text>
</g>
<!-- header_in -->
<g id="node1" class="node">
<title>header_in</title>
<path fill="orange" stroke="orange" d="M51,-190C51,-190 96,-190 96,-190 102,-190 108,-196 108,-202 108,-202 108,-214 108,-214 108,-220 102,-226 96,-226 96,-226 51,-226 51,-226 45,-226 39,-220 39,-214 39,-214 39,-202 39,-202 39,-196 45,-190 51,-190"/>
<text text-anchor="middle" x="73.5" y="-204.3" font-family="Times,serif" font-size="14.00">Header</text>
</g>
<!-- download -->
<g id="node5" class="node">
<title>download</title>
<path fill="orange" stroke="orange" d="M180,-190C180,-190 243,-190 243,-190 249,-190 255,-196 255,-202 255,-202 255,-214 255,-214 255,-220 249,-226 243,-226 243,-226 180,-226 180,-226 174,-226 168,-220 168,-214 168,-214 168,-202 168,-202 168,-196 174,-190 180,-190"/>
<text text-anchor="middle" x="211.5" y="-204.3" font-family="Times,serif" font-size="14.00">Download</text>
</g>
<!-- header_in&#45;&gt;download -->
<g id="edge1" class="edge">
<title>header_in&#45;&gt;download</title>
<path fill="none" stroke="black" d="M140,-208C145.9,-208 151.82,-208 157.59,-208"/>
<polygon fill="black" stroke="black" points="157.75,-211.5 167.75,-208 157.75,-204.5 157.75,-211.5"/>
</g>
<!-- tables_in -->
<g id="node2" class="node">
<title>tables_in</title>
<path fill="orange" stroke="orange" d="M54.5,-135C54.5,-135 92.5,-135 92.5,-135 98.5,-135 104.5,-141 104.5,-147 104.5,-147 104.5,-159 104.5,-159 104.5,-165 98.5,-171 92.5,-171 92.5,-171 54.5,-171 54.5,-171 48.5,-171 42.5,-165 42.5,-159 42.5,-159 42.5,-147 42.5,-147 42.5,-141 48.5,-135 54.5,-135"/>
<text text-anchor="middle" x="73.5" y="-149.3" font-family="Times,serif" font-size="14.00">Tables</text>
</g>
<!-- media_in -->
<g id="node3" class="node">
<title>media_in</title>
<path fill="orange" stroke="orange" d="M55,-80C55,-80 92,-80 92,-80 98,-80 104,-86 104,-92 104,-92 104,-104 104,-104 104,-110 98,-116 92,-116 92,-116 55,-116 55,-116 49,-116 43,-110 43,-104 43,-104 43,-92 43,-92 43,-86 49,-80 55,-80"/>
<text text-anchor="middle" x="73.5" y="-94.3" font-family="Times,serif" font-size="14.00">Media</text>
</g>
<!-- deps_in -->
<g id="node4" class="node">
<title>deps_in</title>
<path fill="orange" stroke="orange" d="M58.5,-25C58.5,-25 88.5,-25 88.5,-25 94.5,-25 100.5,-31 100.5,-37 100.5,-37 100.5,-49 100.5,-49 100.5,-55 94.5,-61 88.5,-61 88.5,-61 58.5,-61 58.5,-61 52.5,-61 46.5,-55 46.5,-49 46.5,-49 46.5,-37 46.5,-37 46.5,-31 52.5,-25 58.5,-25"/>
<text text-anchor="middle" x="73.5" y="-39.3" font-family="Times,serif" font-size="14.00">Deps</text>
</g>
<!-- unpack -->
<g id="node6" class="node">
<title>unpack</title>
<path fill="orange" stroke="orange" d="M303,-190C303,-190 360,-190 360,-190 366,-190 372,-196 372,-202 372,-202 372,-214 372,-214 372,-220 366,-226 360,-226 360,-226 303,-226 303,-226 297,-226 291,-220 291,-214 291,-214 291,-202 291,-202 291,-196 297,-190 303,-190"/>
<text text-anchor="middle" x="331.5" y="-204.3" font-family="Times,serif" font-size="14.00">(Unpack)</text>
</g>
<!-- download&#45;&gt;unpack -->
<g id="edge2" class="edge">
<title>download&#45;&gt;unpack</title>
<path fill="none" stroke="black" d="M255.1,-208C263.36,-208 272.09,-208 280.56,-208"/>
<polygon fill="black" stroke="black" points="280.72,-211.5 290.72,-208 280.72,-204.5 280.72,-211.5"/>
</g>
<!-- convert -->
<g id="node7" class="node">
<title>convert</title>
<path fill="orange" stroke="orange" d="M420,-190C420,-190 480,-190 480,-190 486,-190 492,-196 492,-202 492,-202 492,-214 492,-214 492,-220 486,-226 480,-226 480,-226 420,-226 420,-226 414,-226 408,-220 408,-214 408,-214 408,-202 408,-202 408,-196 414,-190 420,-190"/>
<text text-anchor="middle" x="450" y="-204.3" font-family="Times,serif" font-size="14.00">(Convert)</text>
</g>
<!-- unpack&#45;&gt;convert -->
<g id="edge3" class="edge">
<title>unpack&#45;&gt;convert</title>
<path fill="none" stroke="black" d="M372.27,-208C380.42,-208 389.11,-208 397.61,-208"/>
<polygon fill="black" stroke="black" points="397.83,-211.5 407.83,-208 397.83,-204.5 397.83,-211.5"/>
</g>
<!-- header_out -->
<g id="node8" class="node">
<title>header_out</title>
<path fill="orange" stroke="orange" d="M588.5,-190C588.5,-190 633.5,-190 633.5,-190 639.5,-190 645.5,-196 645.5,-202 645.5,-202 645.5,-214 645.5,-214 645.5,-220 639.5,-226 633.5,-226 633.5,-226 588.5,-226 588.5,-226 582.5,-226 576.5,-220 576.5,-214 576.5,-214 576.5,-202 576.5,-202 576.5,-196 582.5,-190 588.5,-190"/>
<text text-anchor="middle" x="611" y="-204.3" font-family="Times,serif" font-size="14.00">Header</text>
</g>
<!-- convert&#45;&gt;header_out -->
<g id="edge4" class="edge">
<title>convert&#45;&gt;header_out</title>
<path fill="none" stroke="black" d="M492.36,-208C497.88,-208 503.73,-208 509.75,-208"/>
<polygon fill="black" stroke="black" points="510.01,-211.5 520,-208 510,-204.5 510.01,-211.5"/>
</g>
<!-- tables_out -->
<g id="node9" class="node">
<title>tables_out</title>
<path fill="orange" stroke="orange" d="M592,-135C592,-135 630,-135 630,-135 636,-135 642,-141 642,-147 642,-147 642,-159 642,-159 642,-165 636,-171 630,-171 630,-171 592,-171 592,-171 586,-171 580,-165 580,-159 580,-159 580,-147 580,-147 580,-141 586,-135 592,-135"/>
<text text-anchor="middle" x="611" y="-149.3" font-family="Times,serif" font-size="14.00">Tables</text>
</g>
<!-- media_out -->
<g id="node10" class="node">
<title>media_out</title>
<path fill="orange" stroke="orange" d="M566,-80C566,-80 656,-80 656,-80 662,-80 668,-86 668,-92 668,-92 668,-104 668,-104 668,-110 662,-116 656,-116 656,-116 566,-116 566,-116 560,-116 554,-110 554,-104 554,-104 554,-92 554,-92 554,-86 560,-80 566,-80"/>
<text text-anchor="middle" x="611" y="-94.3" font-family="Times,serif" font-size="14.00">(Conv.) Media</text>
</g>
<!-- deps_out -->
<g id="node11" class="node">
<title>deps_out</title>
<path fill="orange" stroke="orange" d="M596,-25C596,-25 626,-25 626,-25 632,-25 638,-31 638,-37 638,-37 638,-49 638,-49 638,-55 632,-61 626,-61 626,-61 596,-61 596,-61 590,-61 584,-55 584,-49 584,-49 584,-37 584,-37 584,-31 590,-25 596,-25"/>
<text text-anchor="middle" x="611" y="-39.3" font-family="Times,serif" font-size="14.00">Deps</text>
</g>
</g>
</svg>
