<?xml version="1.0" encoding="UTF-8" standalone="no"?>
<!DOCTYPE svg PUBLIC "-//W3C//DTD SVG 1.1//EN"
 "http://www.w3.org/Graphics/SVG/1.1/DTD/svg11.dtd">
<!-- Generated by graphviz version 2.43.0 (0)
 -->
<!-- Title: G Pages: 1 -->
<svg width="698pt" height="305pt"
 viewBox="0.00 0.00 698.00 305.00" xmlns="http://www.w3.org/2000/svg" xmlns:xlink="http://www.w3.org/1999/xlink">
<g id="graph0" class="graph" transform="scale(1 1) rotate(0) translate(4 301)">
<title>G</title>
<polygon fill="white" stroke="transparent" points="-4,4 -4,-301 694,-301 694,4 -4,4"/>
<g id="clust1" class="cluster">
<title>cluster_backend</title>
<polygon fill="none" stroke="black" points="0,-8 0,-289 148,-289 148,-8 0,-8"/>
<text text-anchor="middle" x="74" y="-273.8" font-family="Times,serif" font-size="14.00">Backend</text>
</g>
<g id="clust2" class="cluster">
<title>cluster_database</title>
<polygon fill="none" stroke="black" points="8,-16 8,-258 140,-258 140,-16 8,-16"/>
<text text-anchor="middle" x="74" y="-242.8" font-family="Times,serif" font-size="14.00">Database vX.Y.Z</text>
</g>
<g id="clust3" class="cluster">
<title>cluster_load</title>
<polygon fill="none" stroke="black" points="160,-181 160,-258 480,-258 480,-181 160,-181"/>
<text text-anchor="middle" x="320" y="-242.8" font-family="Times,serif" font-size="14.00">Load with audb</text>
</g>
<g id="clust4" class="cluster">
<title>cluster_cache</title>
<polygon fill="none" stroke="black" points="492,-8 492,-289 690,-289 690,-8 492,-8"/>
<text text-anchor="middle" x="591" y="-273.8" font-family="Times,serif" font-size="14.00">Cache</text>
</g>
<g id="clust5" class="cluster">
<title>cluster_flavor</title>
<polygon fill="none" stroke="black" points="500,-16 500,-258 682,-258 682,-16 500,-16"/>
<text text-anchor="middle" x="591" y="-242.8" font-family="Times,serif" font-size="14.00">Database vX.Y.Z Flavor</text>
</g>
<!-- header_in -->
<g id="node1" class="node">
<title>header_in</title>
<path fill="orange" stroke="orange" d="M51,-190C51,-190 96,-190 96,-190 102,-190 108,-196 108,-202 108,-202 108,-214 108,-214 108,-220 102,-226 96,-226 96,-226 51,-226 51,-226 45,-226 39,-220 39,-214 39,-214 39,-202 39,-202 39,-196 45,-190 51,-190"/>
<text text-anchor="middle" x="73.5" y="-204.3" font-family="Times,serif" font-size="14.00">Header</text>
</g>
<!-- download -->
<g id="node5" class="node">
<title>download</title>
<path fill="orange" stroke="orange" d="M180,-190C180,-190 243,-190 243,-190 249,-190 255,-196 255,-202 255,-202 255,-214 255,-214 255,-220 249,-226 243,-226 243,-226 180,-226 180,-226 174,-226 168,-220 168,-214 168,-214 168,-202 168,-202 168,-196 174,-190 180,-190"/>
<text text-anchor="middle" x="211.5" y="-204.3" font-family="Times,serif" font-size="14.00">Download</text>
</g>
<!-- header_in&#45;&gt;download -->
<g id="edge1" class="edge">
<title>header_in&#45;&gt;download</title>
<path fill="none" stroke="black" d="M140,-208C145.9,-208 151.82,-208 157.59,-208"/>
<polygon fill="black" stroke="black" points="157.75,-211.5 167.75,-208 157.75,-204.5 157.75,-211.5"/>
</g>
<!-- tables_in -->
<g id="node2" class="node">
<title>tables_in</title>
<path fill="orange" stroke="orange" d="M54.5,-135C54.5,-135 92.5,-135 92.5,-135 98.5,-135 104.5,-141 104.5,-147 104.5,-147 104.5,-159 104.5,-159 104.5,-165 98.5,-171 92.5,-171 92.5,-171 54.5,-171 54.5,-171 48.5,-171 42.5,-165 42.5,-159 42.5,-159 42.5,-147 42.5,-147 42.5,-141 48.5,-135 54.5,-135"/>
<text text-anchor="middle" x="73.5" y="-149.3" font-family="Times,serif" font-size="14.00">Tables</text>
</g>
<!-- media_in -->
<g id="node3" class="node">
<title>media_in</title>
<path fill="orange" stroke="orange" d="M55,-80C55,-80 92,-80 92,-80 98,-80 104,-86 104,-92 104,-92 104,-104 104,-104 104,-110 98,-116 92,-116 92,-116 55,-116 55,-116 49,-116 43,-110 43,-104 43,-104 43,-92 43,-92 43,-86 49,-80 55,-80"/>
<text text-anchor="middle" x="73.5" y="-94.3" font-family="Times,serif" font-size="14.00">Media</text>
</g>
<!-- deps_in -->
<g id="node4" class="node">
<title>deps_in</title>
<path fill="orange" stroke="orange" d="M58.5,-25C58.5,-25 88.5,-25 88.5,-25 94.5,-25 100.5,-31 100.5,-37 100.5,-37 100.5,-49 100.5,-49 100.5,-55 94.5,-61 88.5,-61 88.5,-61 58.5,-61 58.5,-61 52.5,-61 46.5,-55 46.5,-49 46.5,-49 46.5,-37 46.5,-37 46.5,-31 52.5,-25 58.5,-25"/>
<text text-anchor="middle" x="73.5" y="-39.3" font-family="Times,serif" font-size="14.00">Deps</text>
</g>
<!-- unpack -->
<g id="node6" class="node">
<title>unpack</title>
<path fill="orange" stroke="orange" d="M303,-190C303,-190 350,-190 350,-190 356,-190 362,-196 362,-202 362,-202 362,-214 362,-214 362,-220 356,-226 350,-226 350,-226 303,-226 303,-226 297,-226 291,-220 291,-214 291,-214 291,-202 291,-202 291,-196 297,-190 303,-190"/>
<text text-anchor="middle" x="326.5" y="-204.3" font-family="Times,serif" font-size="14.00">Unpack</text>
</g>
<!-- download&#45;&gt;unpack -->
<g id="edge2" class="edge">
<title>download&#45;&gt;unpack</title>
<path fill="none" stroke="black" d="M255.22,-208C263.57,-208 272.36,-208 280.77,-208"/>
<polygon fill="black" stroke="black" points="280.8,-211.5 290.8,-208 280.8,-204.5 280.8,-211.5"/>
</g>
<!-- convert -->
<g id="node7" class="node">
<title>convert</title>
<path fill="orange" stroke="orange" d="M410,-190C410,-190 460,-190 460,-190 466,-190 472,-196 472,-202 472,-202 472,-214 472,-214 472,-220 466,-226 460,-226 460,-226 410,-226 410,-226 404,-226 398,-220 398,-214 398,-214 398,-202 398,-202 398,-196 404,-190 410,-190"/>
<text text-anchor="middle" x="435" y="-204.3" font-family="Times,serif" font-size="14.00">Convert</text>
</g>
<!-- unpack&#45;&gt;convert -->
<g id="edge3" class="edge">
<title>unpack&#45;&gt;convert</title>
<path fill="none" stroke="black" d="M362.08,-208C370.2,-208 378.98,-208 387.52,-208"/>
<polygon fill="black" stroke="black" points="387.77,-211.5 397.77,-208 387.77,-204.5 387.77,-211.5"/>
</g>
<!-- header_out -->
<g id="node8" class="node">
<title>header_out</title>
<path fill="orange" stroke="orange" d="M568.5,-190C568.5,-190 613.5,-190 613.5,-190 619.5,-190 625.5,-196 625.5,-202 625.5,-202 625.5,-214 625.5,-214 625.5,-220 619.5,-226 613.5,-226 613.5,-226 568.5,-226 568.5,-226 562.5,-226 556.5,-220 556.5,-214 556.5,-214 556.5,-202 556.5,-202 556.5,-196 562.5,-190 568.5,-190"/>
<text text-anchor="middle" x="591" y="-204.3" font-family="Times,serif" font-size="14.00">Header</text>
</g>
<!-- convert&#45;&gt;header_out -->
<g id="edge4" class="edge">
<title>convert&#45;&gt;header_out</title>
<path fill="none" stroke="black" d="M472.11,-208C477.6,-208 483.47,-208 489.57,-208"/>
<polygon fill="black" stroke="black" points="490,-211.5 500,-208 490,-204.5 490,-211.5"/>
</g>
<!-- tables_out -->
<g id="node9" class="node">
<title>tables_out</title>
<path fill="orange" stroke="orange" d="M572,-135C572,-135 610,-135 610,-135 616,-135 622,-141 622,-147 622,-147 622,-159 622,-159 622,-165 616,-171 610,-171 610,-171 572,-171 572,-171 566,-171 560,-165 560,-159 560,-159 560,-147 560,-147 560,-141 566,-135 572,-135"/>
<text text-anchor="middle" x="591" y="-149.3" font-family="Times,serif" font-size="14.00">Tables</text>
</g>
<!-- media_out -->
<g id="node10" class="node">
<title>media_out</title>
<path fill="orange" stroke="orange" d="M546,-80C546,-80 636,-80 636,-80 642,-80 648,-86 648,-92 648,-92 648,-104 648,-104 648,-110 642,-116 636,-116 636,-116 546,-116 546,-116 540,-116 534,-110 534,-104 534,-104 534,-92 534,-92 534,-86 540,-80 546,-80"/>
<text text-anchor="middle" x="591" y="-94.3" font-family="Times,serif" font-size="14.00">(Conv.) Media</text>
</g>
<!-- deps_out -->
<g id="node11" class="node">
<title>deps_out</title>
<path fill="orange" stroke="orange" d="M576,-25C576,-25 606,-25 606,-25 612,-25 618,-31 618,-37 618,-37 618,-49 618,-49 618,-55 612,-61 606,-61 606,-61 576,-61 576,-61 570,-61 564,-55 564,-49 564,-49 564,-37 564,-37 564,-31 570,-25 576,-25"/>
<text text-anchor="middle" x="591" y="-39.3" font-family="Times,serif" font-size="14.00">Deps</text>
</g>
</g>
</svg>
