<?xml version="1.0" encoding="UTF-8" standalone="no"?>
<!DOCTYPE svg PUBLIC "-//W3C//DTD SVG 1.1//EN"
 "http://www.w3.org/Graphics/SVG/1.1/DTD/svg11.dtd">
<!-- Generated by graphviz version 2.43.0 (0)
 -->
<!-- Title: G Pages: 1 -->
<svg width="504pt" height="305pt"
 viewBox="0.00 0.00 504.00 305.00" xmlns="http://www.w3.org/2000/svg" xmlns:xlink="http://www.w3.org/1999/xlink">
<g id="graph0" class="graph" transform="scale(1 1) rotate(0) translate(4 301)">
<title>G</title>
<polygon fill="white" stroke="transparent" points="-4,4 -4,-301 500,-301 500,4 -4,4"/>
<g id="clust1" class="cluster">
<title>cluster_project</title>
<polygon fill="none" stroke="black" points="0,-8 0,-289 150,-289 150,-8 0,-8"/>
<text text-anchor="middle" x="75" y="-273.8" font-family="Times,serif" font-size="14.00">Database Project</text>
</g>
<g id="clust2" class="cluster">
<title>cluster_folder</title>
<polygon fill="none" stroke="black" points="8,-16 8,-258 142,-258 142,-16 8,-16"/>
<text text-anchor="middle" x="75" y="-242.8" font-family="Times,serif" font-size="14.00">Database Folder</text>
</g>
<g id="clust3" class="cluster">
<title>cluster_publish</title>
<polygon fill="none" stroke="black" points="162,-181 162,-258 336,-258 336,-181 162,-181"/>
<text text-anchor="middle" x="249" y="-242.8" font-family="Times,serif" font-size="14.00">Publish with audb</text>
</g>
<g id="clust4" class="cluster">
<title>cluster_backend</title>
<polygon fill="none" stroke="black" points="348,-8 348,-289 496,-289 496,-8 348,-8"/>
<text text-anchor="middle" x="422" y="-273.8" font-family="Times,serif" font-size="14.00">Backend</text>
</g>
<g id="clust5" class="cluster">
<title>cluster_database</title>
<polygon fill="none" stroke="black" points="356,-16 356,-258 488,-258 488,-16 356,-16"/>
<text text-anchor="middle" x="422" y="-242.8" font-family="Times,serif" font-size="14.00">Database vX.Y.Z</text>
</g>
<!-- header_in -->
<g id="node1" class="node">
<title>header_in</title>
<path fill="orange" stroke="orange" d="M52,-190C52,-190 97,-190 97,-190 103,-190 109,-196 109,-202 109,-202 109,-214 109,-214 109,-220 103,-226 97,-226 97,-226 52,-226 52,-226 46,-226 40,-220 40,-214 40,-214 40,-202 40,-202 40,-196 46,-190 52,-190"/>
<text text-anchor="middle" x="74.5" y="-204.3" font-family="Times,serif" font-size="14.00">Header</text>
</g>
<!-- pack -->
<g id="node5" class="node">
<title>pack</title>
<path fill="orange" stroke="orange" d="M182,-190C182,-190 212,-190 212,-190 218,-190 224,-196 224,-202 224,-202 224,-214 224,-214 224,-220 218,-226 212,-226 212,-226 182,-226 182,-226 176,-226 170,-220 170,-214 170,-214 170,-202 170,-202 170,-196 176,-190 182,-190"/>
<text text-anchor="middle" x="197" y="-204.3" font-family="Times,serif" font-size="14.00">Pack</text>
</g>
<!-- header_in&#45;&gt;pack -->
<g id="edge1" class="edge">
<title>header_in&#45;&gt;pack</title>
<path fill="none" stroke="black" d="M142,-208C148.08,-208 154.08,-208 159.75,-208"/>
<polygon fill="black" stroke="black" points="159.87,-211.5 169.87,-208 159.87,-204.5 159.87,-211.5"/>
</g>
<!-- tables_in -->
<g id="node2" class="node">
<title>tables_in</title>
<path fill="orange" stroke="orange" d="M55.5,-135C55.5,-135 93.5,-135 93.5,-135 99.5,-135 105.5,-141 105.5,-147 105.5,-147 105.5,-159 105.5,-159 105.5,-165 99.5,-171 93.5,-171 93.5,-171 55.5,-171 55.5,-171 49.5,-171 43.5,-165 43.5,-159 43.5,-159 43.5,-147 43.5,-147 43.5,-141 49.5,-135 55.5,-135"/>
<text text-anchor="middle" x="74.5" y="-149.3" font-family="Times,serif" font-size="14.00">Tables</text>
</g>
<!-- media_in -->
<g id="node3" class="node">
<title>media_in</title>
<path fill="orange" stroke="orange" d="M56,-80C56,-80 93,-80 93,-80 99,-80 105,-86 105,-92 105,-92 105,-104 105,-104 105,-110 99,-116 93,-116 93,-116 56,-116 56,-116 50,-116 44,-110 44,-104 44,-104 44,-92 44,-92 44,-86 50,-80 56,-80"/>
<text text-anchor="middle" x="74.5" y="-94.3" font-family="Times,serif" font-size="14.00">Media</text>
</g>
<!-- deps_in -->
<g id="node4" class="node">
<title>deps_in</title>
<path fill="orange" stroke="orange" d="M55,-25C55,-25 94,-25 94,-25 100,-25 106,-31 106,-37 106,-37 106,-49 106,-49 106,-55 100,-61 94,-61 94,-61 55,-61 55,-61 49,-61 43,-55 43,-49 43,-49 43,-37 43,-37 43,-31 49,-25 55,-25"/>
<text text-anchor="middle" x="74.5" y="-39.3" font-family="Times,serif" font-size="14.00">(Deps)</text>
</g>
<!-- upload -->
<g id="node6" class="node">
<title>upload</title>
<path fill="orange" stroke="orange" d="M272,-190C272,-190 316,-190 316,-190 322,-190 328,-196 328,-202 328,-202 328,-214 328,-214 328,-220 322,-226 316,-226 316,-226 272,-226 272,-226 266,-226 260,-220 260,-214 260,-214 260,-202 260,-202 260,-196 266,-190 272,-190"/>
<text text-anchor="middle" x="294" y="-204.3" font-family="Times,serif" font-size="14.00">Upload</text>
</g>
<!-- pack&#45;&gt;upload -->
<g id="edge2" class="edge">
<title>pack&#45;&gt;upload</title>
<path fill="none" stroke="black" d="M224.21,-208C232.11,-208 240.99,-208 249.69,-208"/>
<polygon fill="black" stroke="black" points="249.74,-211.5 259.74,-208 249.74,-204.5 249.74,-211.5"/>
</g>
<!-- header_out -->
<g id="node7" class="node">
<title>header_out</title>
<path fill="orange" stroke="orange" d="M399,-190C399,-190 444,-190 444,-190 450,-190 456,-196 456,-202 456,-202 456,-214 456,-214 456,-220 450,-226 444,-226 444,-226 399,-226 399,-226 393,-226 387,-220 387,-214 387,-214 387,-202 387,-202 387,-196 393,-190 399,-190"/>
<text text-anchor="middle" x="421.5" y="-204.3" font-family="Times,serif" font-size="14.00">Header</text>
</g>
<!-- upload&#45;&gt;header_out -->
<g id="edge3" class="edge">
<title>upload&#45;&gt;header_out</title>
<path fill="none" stroke="black" d="M328.3,-208C333.8,-208 339.69,-208 345.73,-208"/>
<polygon fill="black" stroke="black" points="346,-211.5 356,-208 346,-204.5 346,-211.5"/>
</g>
<!-- tables_out -->
<g id="node8" class="node">
<title>tables_out</title>
<path fill="orange" stroke="orange" d="M402.5,-135C402.5,-135 440.5,-135 440.5,-135 446.5,-135 452.5,-141 452.5,-147 452.5,-147 452.5,-159 452.5,-159 452.5,-165 446.5,-171 440.5,-171 440.5,-171 402.5,-171 402.5,-171 396.5,-171 390.5,-165 390.5,-159 390.5,-159 390.5,-147 390.5,-147 390.5,-141 396.5,-135 402.5,-135"/>
<text text-anchor="middle" x="421.5" y="-149.3" font-family="Times,serif" font-size="14.00">Tables</text>
</g>
<!-- media_out -->
<g id="node9" class="node">
<title>media_out</title>
<path fill="orange" stroke="orange" d="M403,-80C403,-80 440,-80 440,-80 446,-80 452,-86 452,-92 452,-92 452,-104 452,-104 452,-110 446,-116 440,-116 440,-116 403,-116 403,-116 397,-116 391,-110 391,-104 391,-104 391,-92 391,-92 391,-86 397,-80 403,-80"/>
<text text-anchor="middle" x="421.5" y="-94.3" font-family="Times,serif" font-size="14.00">Media</text>
</g>
<!-- deps_out -->
<g id="node10" class="node">
<title>deps_out</title>
<path fill="orange" stroke="orange" d="M406.5,-25C406.5,-25 436.5,-25 436.5,-25 442.5,-25 448.5,-31 448.5,-37 448.5,-37 448.5,-49 448.5,-49 448.5,-55 442.5,-61 436.5,-61 436.5,-61 406.5,-61 406.5,-61 400.5,-61 394.5,-55 394.5,-49 394.5,-49 394.5,-37 394.5,-37 394.5,-31 400.5,-25 406.5,-25"/>
<text text-anchor="middle" x="421.5" y="-39.3" font-family="Times,serif" font-size="14.00">Deps</text>
</g>
</g>
</svg>
